<svg width="64" height="64" viewBox="0 0 64 64" fill="none" xmlns="http://www.w3.org/2000/svg">
<rect width="64" height="64" fill="#242424"/>
<path d="M23.432 29.688C23.432 29.88 23.336 29.976 23.144 29.976H21.008C20.816 29.976 20.72 29.88 20.72 29.688V22.44L14.384 12.192C14.272 11.984 14.344 11.88 14.6 11.88H17.024C17.184 11.88 17.288 11.928 17.336 12.024L22.088 19.728L26.864 12.024C26.912 11.928 27.016 11.88 27.176 11.88H29.6C29.856 11.88 29.928 11.984 29.816 12.192L23.432 22.464V29.688Z" fill="white"/>
<path d="M46.128 28.992C45.536 29.456 44.872 29.8 44.136 30.024C43.416 30.264 42.632 30.384 41.784 30.384C40.12 30.384 38.68 29.92 37.464 28.992C36.664 28.384 36.08 27.624 35.712 26.712C35.36 25.784 35.184 24.72 35.184 23.52V12.216C35.184 12.136 35.208 12.056 35.256 11.976C35.32 11.896 35.392 11.856 35.472 11.856H37.608C37.688 11.856 37.752 11.888 37.8 11.952C37.864 12.016 37.896 12.088 37.896 12.168V23.52C37.896 24.768 38.224 25.792 38.88 26.592C39.536 27.392 40.504 27.792 41.784 27.792C43.096 27.792 44.072 27.4 44.712 26.616C45.368 25.832 45.696 24.8 45.696 23.52V12.168C45.696 12.088 45.72 12.016 45.768 11.952C45.832 11.888 45.904 11.856 45.984 11.856H48.12C48.2 11.856 48.264 11.896 48.312 11.976C48.376 12.056 48.408 12.136 48.408 12.216V23.52C48.408 24.704 48.216 25.76 47.832 26.688C47.464 27.616 46.896 28.384 46.128 28.992Z" fill="white"/>
<path d="M18 52C17.68 52 17.488 51.976 17.424 51.928C17.36 51.864 17.328 51.656 17.328 51.304V34.528C17.328 34.208 17.352 34.024 17.4 33.976C17.464 33.912 17.648 33.88 17.952 33.88H26.472C26.648 33.88 26.752 33.912 26.784 33.976C26.816 34.024 26.832 34.12 26.832 34.264V36.04C26.832 36.2 26.808 36.312 26.76 36.376C26.712 36.424 26.616 36.448 26.472 36.448H19.968V41.344H26.16C26.4 41.344 26.52 41.472 26.52 41.728V43.528C26.52 43.8 26.4 43.936 26.16 43.936H19.968V49.408H26.76C26.984 49.408 27.096 49.544 27.096 49.816V51.616C27.096 51.872 26.984 52 26.76 52H18Z" fill="white"/>
<path d="M45.864 51.976C45.736 51.976 45.64 51.952 45.576 51.904C45.512 51.856 45.432 51.752 45.336 51.592L37.8 38.632V51.592C37.8 51.752 37.776 51.856 37.728 51.904C37.68 51.952 37.576 51.976 37.416 51.976H35.424C35.296 51.976 35.2 51.952 35.136 51.904C35.072 51.856 35.04 51.752 35.04 51.592V34.288C35.04 34.096 35.072 33.976 35.136 33.928C35.2 33.864 35.32 33.832 35.496 33.832H37.704C37.832 33.832 37.928 33.856 37.992 33.904C38.056 33.936 38.136 34.04 38.232 34.216L45.768 47.152V34.216C45.768 34.056 45.792 33.952 45.84 33.904C45.888 33.856 45.992 33.832 46.152 33.832H48.144C48.304 33.832 48.4 33.856 48.432 33.904C48.48 33.952 48.504 34.056 48.504 34.216V51.52C48.504 51.712 48.472 51.84 48.408 51.904C48.36 51.952 48.248 51.976 48.072 51.976H45.864Z" fill="white"/>
</svg>
