<svg width="125" height="125" viewBox="0 0 125 126" fill="none" xmlns="http://www.w3.org/2000/svg">
<g clip-path="url(#clip0)">
<path d="M41.5023 125.43C53.0359 125.43 62.3965 116.097 62.3965 104.597V83.7634H41.5023C29.9687 83.7634 20.608 93.0968 20.608 104.597C20.608 116.097 29.9687 125.43 41.5023 125.43Z" fill="#0ACF83"/>
<path d="M20.608 62.93C20.608 51.43 29.9687 42.0967 41.5023 42.0967H62.3965V83.7634H41.5023C29.9687 83.7634 20.608 74.43 20.608 62.93Z" fill="#A259FF"/>
<path d="M20.6093 21.2634C20.6093 9.76339 29.9699 0.430054 41.5036 0.430054H62.3978V42.0967H41.5036C29.9699 42.0967 20.6093 32.7634 20.6093 21.2634Z" fill="#F24E1E"/>
<path d="M62.3965 0.430054H83.2908C94.8244 0.430054 104.185 9.76339 104.185 21.2634C104.185 32.7634 94.8244 42.0967 83.2908 42.0967H62.3965V0.430054Z" fill="#FF7262"/>
<path d="M104.185 62.93C104.185 74.43 94.8244 83.7634 83.2908 83.7634C71.7572 83.7634 62.3965 74.43 62.3965 62.93C62.3965 51.43 71.7572 42.0967 83.2908 42.0967C94.8244 42.0967 104.185 51.43 104.185 62.93Z" fill="#1ABCFE"/>
</g>
<defs>
<clipPath id="clip0">
<rect width="83.5937" height="125" fill="white" transform="translate(20.5997 0.430054)"/>
</clipPath>
</defs>
</svg>
